<svg version="1.2" xmlns="http://www.w3.org/2000/svg" viewBox="0 0 1578 1567" width="1578" height="1567">
	<title>Metropolitan_Bank_and_Trust_Company-svg</title>
	<style>
		.s0 { fill: #023184 } 
	</style>
	<g id="#023184ff">
		<path id="Layer" fill-rule="evenodd" class="s0" d="m768.7 4.4c31.3-14.7 60.7 11.6 86.4 26.3 224.7 151.4 453.9 296.1 678.6 447.4 60.4 41.5 56.2 141.4-6.3 179-235.8 155.6-473.3 308.8-708.7 465-16.6 11.1-39.8 11.8-56.7 1.1-226.9-148.5-454.2-296.6-681.3-444.8-35.6-22.5-78.2-50.5-78.9-97.6-9.3-49.5 24.4-95.1 65.1-119.2 234.6-151.4 465.1-309.2 701.8-457.2zm260.8 301.6c37.5 60.5 77.4 119.5 113 181.2 42 2.7 84.2 2.5 126.3 0.4-80.8-59.1-164.5-114.8-239.3-181.6zm-721.5 181.6c41.2 1.4 82.6 3.5 123.8-0.2 38.9-57.5 74.5-117.3 114.5-174-79.1 58.5-157.3 118.4-238.3 174.2zm291.4 1.1c38 0.3 75.9 0.2 113.9 0.1-0.2-57.5-0.3-114.9-0.5-172.4-34.3 59.7-74 115.9-113.4 172.3zm267.1-167c-0.9 55.7-0.8 111.5 0 167.1q54.7 0.1 109.3 0c-36.3-55.8-72.9-111.4-109.3-167.1zm-558.3 318.9c80.3 59.3 160.1 119.2 240.4 178.5-42.1-57.4-79.3-118.2-117.4-178.3-41-0.3-82.1 0-123-0.2zm290.9 0.1c39 57.8 78.5 115.4 114.7 175.1-0.7-58.4-0.6-116.7-0.1-175.1-38.2 0-76.4 0-114.6 0zm267.8-0.5c-1.3 56.8-1.1 113.6-0.8 170.4 36.4-57.1 73.8-113.6 111.6-169.9-36.9 0.2-73.8-0.7-110.8-0.5zm284.4 0.3c-43.9 58.9-81.6 122-120.4 184.4 75.1-68.4 160.2-124.2 241.8-184.4-40.5 0.2-80.9 0.3-121.4 0zm-1147.9 142.8c2.3-34.3 46.1-58.3 75.9-40.1 66.7 36 126.7 82.8 190.5 123.5 172.9 112.9 341.6 232.3 517.6 340.6 33-16 64.1-35.4 94.5-55.8 195.6-130.7 391-261.8 587-391.9 23.3-15.8 51.2-25.4 79.6-21.1 9.5 13.3 19.3 26.3 29.2 39.2 0 227.8-1.3 455.5-0.1 683.2-1.1 54.9-48.8 107.6-105.5 105.8-454.2 0.2-908.6 0.4-1362.8-0.1-39.7 3.9-73.6-23.7-93.9-55.2-13.9-21.2-11.3-47.4-11.5-71.5-0.3-218.8-0.7-437.7-0.5-656.6zm904.6 547.4c-27.7 15.9-54.2 36.3-86.6 41.5-45.9 7.9-93.4-5.3-132.5-29.8-152-94.8-304-189.7-456.5-283.8-14.7-8.8-30.2-20.5-48.5-15.6-2.5 115-0.5 230-1.6 345 21.6 5.6 43.8 9.6 66.2 9 381.1-0.5 762.2 0.9 1143.2-2 10.3-63.6 6.8-128.3 7.2-192.5-0.3-55.6 3.5-111.8-7.6-166.7-165.1 91.7-321.2 198.3-483.3 294.9z"/>
	</g>
</svg>